<?xml version="1.0" encoding="utf-8"?>
<svg xmlns="http://www.w3.org/2000/svg" viewBox="318.9055 172.56 30.7478 29.4547" width="30.7478px" height="29.4547px">
  <ellipse style="stroke: rgb(0, 0, 0); fill: rgb(245, 232, 0); paint-order: stroke;" cx="338.333" cy="181.356" rx="2.31" ry="2.035" transform="matrix(0.9999999999999999, 0, 0, 0.9999999999999999, 5.684341886080802e-14, 0)"/>
  <ellipse style="stroke: rgb(0, 0, 0); fill: rgb(245, 232, 0); paint-order: stroke;" cx="345.19" cy="181.173" rx="2.31" ry="2.035" transform="matrix(0.9999999999999999, 0, 0, 0.9999999999999999, 5.684341886080802e-14, 0)"/>
  <path d="M 347.148 172.56 L 344.966 176.168 C 343.09 175.56 340.297 175.679 338.54 176.168 L 336.438 172.611 C 332.986 179.059 333.963 183.134 336.597 185.16 C 336.194 185.412 335.779 185.689 335.35 185.993 C 324.371 177.234 314.487 187.099 320.971 195.913 L 321.021 195.913 C 322.184 197.6 323.524 198.644 324.971 199.19 C 327.021 199.963 329.13 199.741 331.207 199.447 C 333.284 199.153 335.316 198.784 337.253 198.922 C 339.19 199.06 341.127 199.557 342.9 201.491 C 344.109 202.809 345.826 201.39 344.386 199.984 C 342.201 197.85 339.861 197.025 337.561 196.862 C 335.261 196.699 333.056 197.155 331.059 197.438 C 329.062 197.721 327.298 197.847 325.783 197.275 C 325.072 197.007 324.38 196.585 323.713 195.915 L 346.223 195.915 C 347.287 192.159 347.4 188.185 346.19 185.678 C 349.825 183.781 351.287 179.302 347.148 172.562 L 347.148 172.56 Z M 340.398 182.262 C 338.082 183.379 337.031 182.474 336.581 180.606 C 338.854 179.196 340.207 180.328 340.398 182.262 Z M 343.289 182.262 C 343.48 180.328 344.833 179.195 347.106 180.606 C 346.656 182.474 345.604 183.38 343.289 182.262 Z" style="fill: rgb(26, 26, 26);" transform="matrix(0.9999999999999999, 0, 0, 0.9999999999999999, 5.684341886080802e-14, 0)"/>
</svg>